<?xml version="1.0" encoding="UTF-8" standalone="no"?>
<svg
   xmlns:dc="http://purl.org/dc/elements/1.1/"
   xmlns:cc="http://creativecommons.org/ns#"
   xmlns:rdf="http://www.w3.org/1999/02/22-rdf-syntax-ns#"
   xmlns:svg="http://www.w3.org/2000/svg"
   xmlns="http://www.w3.org/2000/svg"
   xmlns:sodipodi="http://sodipodi.sourceforge.net/DTD/sodipodi-0.dtd"
   xmlns:inkscape="http://www.inkscape.org/namespaces/inkscape"
   viewBox="0 0 144 144"
   version="1.1"
   id="svg235"
   sodipodi:docname="rust-logo-beta.svg"
   width="144"
   height="144"
   inkscape:version="0.92.4 5da689c313, 2019-01-14">
  <metadata
     id="metadata241">
    <rdf:RDF>
      <cc:Work
         rdf:about="">
        <dc:format>image/svg+xml</dc:format>
        <dc:type
           rdf:resource="http://purl.org/dc/dcmitype/StillImage" />
        <dc:title></dc:title>
      </cc:Work>
    </rdf:RDF>
  </metadata>
  <defs
     id="defs239" />
  <sodipodi:namedview
     pagecolor="#ffffff"
     bordercolor="#666666"
     borderopacity="1"
     objecttolerance="10"
     gridtolerance="10"
     guidetolerance="10"
     inkscape:pageopacity="0"
     inkscape:pageshadow="2"
     inkscape:window-width="1918"
     inkscape:window-height="1042"
     id="namedview237"
     showgrid="false"
     fit-margin-top="0"
     fit-margin-left="0"
     fit-margin-right="0"
     fit-margin-bottom="0"
     inkscape:zoom="0.65313973"
     inkscape:cx="-166.75079"
     inkscape:cy="483.99669"
     inkscape:window-x="0"
     inkscape:window-y="18"
     inkscape:window-maximized="0"
     inkscape:current-layer="svg235" />
  <style
     id="style2">.a{stop-color:#ffea00}.b{stop-opacity:0}.e{stop-color:#ff8e00}.c{stop-color:#c42482}.d{stop-color:#ff272d}.f{stop-color:#ffde00}.g{stop-color:#ff9100}.h{stop-opacity:.5}</style>
  <radialGradient
     id="ad"
     cx="-14492"
     cy="9293.5996"
     r="450.88"
     fx="-14521"
     gradientTransform="matrix(0.76,0.03,0.05,-1.12,11487,11148)"
     gradientUnits="userSpaceOnUse">
    <stop
       class="a"
       offset=".05"
       id="stop4" />
    <stop
       class="f"
       offset=".12"
       id="stop6" />
    <stop
       offset=".25"
       stop-color="#ffbf00"
       id="stop8" />
    <stop
       class="e"
       offset=".43"
       id="stop10" />
    <stop
       class="d"
       offset=".77"
       id="stop12" />
    <stop
       offset=".87"
       stop-color="#e0255a"
       id="stop14" />
    <stop
       offset=".95"
       stop-color="#cc2477"
       id="stop16" />
    <stop
       class="c"
       offset="1"
       id="stop18" />
  </radialGradient>
  <radialGradient
     id="ac"
     cx="-7586.8999"
     cy="8863.5"
     r="791.22998"
     gradientTransform="matrix(1.23,0,0,-1.23,9957.2,11055)"
     gradientUnits="userSpaceOnUse">
    <stop
       offset="0"
       stop-color="#00ccda"
       id="stop21" />
    <stop
       offset=".22"
       stop-color="#0083ff"
       id="stop23" />
    <stop
       offset=".26"
       stop-color="#007af9"
       id="stop25" />
    <stop
       offset=".33"
       stop-color="#0060e8"
       id="stop27" />
    <stop
       offset=".33"
       stop-color="#005fe7"
       id="stop29" />
    <stop
       offset=".44"
       stop-color="#2639ad"
       id="stop31" />
    <stop
       offset=".52"
       stop-color="#401e84"
       id="stop33" />
    <stop
       offset=".57"
       stop-color="#4a1475"
       id="stop35" />
  </radialGradient>
  <linearGradient
     id="ab"
     x1="540.64001"
     x2="349.20001"
     y1="254.8"
     y2="881.03003"
     gradientTransform="matrix(1,0,0,-1,0,984)"
     gradientUnits="userSpaceOnUse">
    <stop
       offset="0"
       stop-color="#000f43"
       stop-opacity=".4"
       id="stop38" />
    <stop
       offset=".48"
       stop-color="#001962"
       stop-opacity=".17"
       id="stop40" />
    <stop
       class="b"
       offset="1"
       stop-color="#002079"
       id="stop42" />
  </linearGradient>
  <radialGradient
     id="aa"
     cx="-8337.2002"
     cy="7467.6001"
     r="266.89001"
     gradientTransform="matrix(1.22,0.12,0.12,-1.22,10240,10765)"
     gradientUnits="userSpaceOnUse">
    <stop
       class="a"
       offset="0"
       id="stop45" />
    <stop
       class="d"
       offset=".5"
       id="stop47" />
    <stop
       class="c"
       offset="1"
       id="stop49" />
  </radialGradient>
  <radialGradient
     id="z"
     cx="-8361.2998"
     cy="7723.6001"
     r="445.67999"
     gradientTransform="matrix(1.22,0.12,0.12,-1.22,10240,10765)"
     gradientUnits="userSpaceOnUse">
    <stop
       offset="0"
       stop-color="#ffe900"
       id="stop52" />
    <stop
       offset=".16"
       stop-color="#ffaf0e"
       id="stop54" />
    <stop
       offset=".32"
       stop-color="#ff7a1b"
       id="stop56" />
    <stop
       offset=".47"
       stop-color="#ff4e26"
       id="stop58" />
    <stop
       offset=".62"
       stop-color="#ff2c2e"
       id="stop60" />
    <stop
       offset=".76"
       stop-color="#ff1434"
       id="stop62" />
    <stop
       offset=".89"
       stop-color="#ff0538"
       id="stop64" />
    <stop
       offset="1"
       stop-color="#ff0039"
       id="stop66" />
  </radialGradient>
  <radialGradient
     id="y"
     cx="-8298.2998"
     cy="7310.3999"
     r="408.95999"
     gradientTransform="matrix(1.22,0.12,0.12,-1.22,10240,10765)"
     gradientUnits="userSpaceOnUse">
    <stop
       class="d"
       offset="0"
       id="stop69" />
    <stop
       class="c"
       offset=".5"
       id="stop71" />
    <stop
       offset=".99"
       stop-color="#620700"
       id="stop73" />
  </radialGradient>
  <radialGradient
     id="x"
     cx="715.19"
     cy="589.96002"
     r="782.17999"
     fx="743.16998"
     fy="576.13"
     gradientTransform="matrix(1,0,0,-1,0,984)"
     gradientUnits="userSpaceOnUse">
    <stop
       class="a"
       offset=".16"
       id="stop76" />
    <stop
       class="f"
       offset=".23"
       id="stop78" />
    <stop
       offset=".37"
       stop-color="#ffbf00"
       id="stop80" />
    <stop
       class="e"
       offset=".54"
       id="stop82" />
    <stop
       class="d"
       offset=".76"
       id="stop84" />
    <stop
       offset=".8"
       stop-color="#f92433"
       id="stop86" />
    <stop
       offset=".84"
       stop-color="#e91c45"
       id="stop88" />
    <stop
       offset=".89"
       stop-color="#cf0e62"
       id="stop90" />
    <stop
       offset=".94"
       stop-color="#b5007f"
       id="stop92" />
  </radialGradient>
  <radialGradient
     id="w"
     cx="656.34003"
     cy="982.71002"
     r="923.62"
     gradientTransform="matrix(1,0,0,-1,0,984)"
     gradientUnits="userSpaceOnUse">
    <stop
       class="a"
       offset=".28"
       id="stop95" />
    <stop
       offset=".4"
       stop-color="#fd0"
       id="stop97" />
    <stop
       offset=".63"
       stop-color="#ffba00"
       id="stop99" />
    <stop
       class="g"
       offset=".86"
       id="stop101" />
    <stop
       offset=".93"
       stop-color="#ff6711"
       id="stop103" />
    <stop
       offset=".99"
       stop-color="#ff4a1d"
       id="stop105" />
  </radialGradient>
  <linearGradient
     id="v"
     x1="-9022.9004"
     x2="-8738.5"
     y1="7636.7002"
     y2="7709.2002"
     gradientTransform="matrix(1.22,0.12,0.12,-1.22,10240,10765)"
     gradientUnits="userSpaceOnUse">
    <stop
       class="c h"
       offset="0"
       id="stop108" />
    <stop
       class="d h"
       offset=".47"
       id="stop110" />
    <stop
       offset=".49"
       stop-color="#ff2c2c"
       stop-opacity=".51"
       id="stop112" />
    <stop
       offset=".68"
       stop-color="#ff7a1a"
       stop-opacity=".72"
       id="stop114" />
    <stop
       offset=".83"
       stop-color="#ffb20d"
       stop-opacity=".87"
       id="stop116" />
    <stop
       offset=".94"
       stop-color="#ffd605"
       stop-opacity=".96"
       id="stop118" />
    <stop
       offset="1"
       stop-color="#ffe302"
       id="stop120" />
  </linearGradient>
  <linearGradient
     id="u"
     x1="188.87"
     x2="134.3"
     y1="2080.8999"
     y2="2220.8"
     gradientTransform="matrix(0.99,0.1,0.1,-0.99,-250.06,2305.8)"
     gradientUnits="userSpaceOnUse">
    <stop
       offset="0"
       stop-color="#891551"
       stop-opacity=".6"
       id="stop123" />
    <stop
       class="c b"
       offset="1"
       id="stop125" />
  </linearGradient>
  <linearGradient
     id="t"
     x1="-38.43"
     x2="55.68"
     y1="277.73999"
     y2="170.86"
     gradientTransform="matrix(0.99,0.1,0.1,-0.99,229.07,745.44)"
     gradientUnits="userSpaceOnUse">
    <stop
       class="h"
       offset=".01"
       stop-color="#891551"
       id="stop128" />
    <stop
       class="d h"
       offset=".48"
       id="stop130" />
    <stop
       class="d b"
       offset="1"
       id="stop132" />
  </linearGradient>
  <linearGradient
     id="s"
     x1="142.42999"
     x2="142.5"
     y1="93.370003"
     y2="168.14999"
     gradientTransform="matrix(0.99,0.1,0.1,-0.99,229.07,745.44)"
     gradientUnits="userSpaceOnUse">
    <stop
       class="c"
       offset="0"
       id="stop135" />
    <stop
       class="c"
       offset=".08"
       stop-opacity=".81"
       id="stop137" />
    <stop
       class="c"
       offset=".21"
       stop-opacity=".57"
       id="stop139" />
    <stop
       class="c"
       offset=".33"
       stop-opacity=".36"
       id="stop141" />
    <stop
       class="c"
       offset=".45"
       stop-opacity=".2"
       id="stop143" />
    <stop
       class="c"
       offset=".56"
       stop-opacity=".09"
       id="stop145" />
    <stop
       class="c"
       offset=".67"
       stop-opacity=".02"
       id="stop147" />
    <stop
       class="c b"
       offset=".77"
       id="stop149" />
  </linearGradient>
  <linearGradient
     id="r"
     x1="620.52002"
     x2="926.17999"
     y1="947.88"
     y2="264.39001"
     gradientTransform="matrix(1,0,0,-1,0,984)"
     gradientUnits="userSpaceOnUse">
    <stop
       offset="0"
       stop-color="#fff14f"
       id="stop152" />
    <stop
       offset=".27"
       stop-color="#ffee4c"
       id="stop154" />
    <stop
       offset=".45"
       stop-color="#ffe643"
       id="stop156" />
    <stop
       offset=".61"
       stop-color="#ffd834"
       id="stop158" />
    <stop
       offset=".76"
       stop-color="#ffc41e"
       id="stop160" />
    <stop
       offset=".89"
       stop-color="#ffab02"
       id="stop162" />
    <stop
       offset=".9"
       stop-color="#ffa900"
       id="stop164" />
    <stop
       offset=".95"
       stop-color="#ffa000"
       id="stop166" />
    <stop
       class="g"
       offset="1"
       id="stop168" />
  </linearGradient>
  <linearGradient
     id="q"
     x1="680.88"
     x2="536.09998"
     y1="554.78998"
     y2="166.03999"
     gradientTransform="matrix(1,0,0,-1,0,984)"
     gradientUnits="userSpaceOnUse">
    <stop
       class="e"
       offset="0"
       id="stop171" />
    <stop
       class="e"
       offset=".04"
       stop-opacity=".86"
       id="stop173" />
    <stop
       class="e"
       offset=".08"
       stop-opacity=".73"
       id="stop175" />
    <stop
       class="e"
       offset=".13"
       stop-opacity=".63"
       id="stop177" />
    <stop
       class="e"
       offset=".18"
       stop-opacity=".56"
       id="stop179" />
    <stop
       class="e"
       offset=".23"
       stop-opacity=".51"
       id="stop181" />
    <stop
       class="e h"
       offset=".28"
       id="stop183" />
    <stop
       class="e"
       offset=".39"
       stop-opacity=".48"
       id="stop185" />
    <stop
       class="e"
       offset=".52"
       stop-opacity=".42"
       id="stop187" />
    <stop
       class="e"
       offset=".68"
       stop-opacity=".31"
       id="stop189" />
    <stop
       class="e"
       offset=".84"
       stop-opacity=".17"
       id="stop191" />
    <stop
       class="e b"
       offset="1"
       id="stop193" />
  </linearGradient>
  <linearGradient
     id="p"
     x1="348"
     x2="949"
     y1="163"
     y2="163"
     gradientTransform="matrix(1,0,0,-1,0,984)"
     gradientUnits="userSpaceOnUse">
    <stop
       offset="0"
       stop-color="#04fcee"
       id="stop196" />
    <stop
       offset="1"
       stop-color="#23e832"
       id="stop198" />
  </linearGradient>
  <g
     id="g1213"
     transform="translate(-0.95013487,-1.0498651)">
    <g
       transform="translate(0.95,1.05)"
       id="g1353">
      <path
         inkscape:connector-curvature="0"
         d="M 71.05,23.68 C 44.99,23.68 23.78,44.9 23.78,70.95 23.78,97 45,118.22 71.05,118.22 97.1,118.22 118.32,97 118.32,70.95 118.32,44.9 97.1,23.68 71.05,23.68 Z m -0.07,4.2 a 3.1,3.11 0 0 1 3.02,3.11 3.11,3.11 0 0 1 -6.22,0 3.11,3.11 0 0 1 3.2,-3.11 z M 78.1,33 a 38.27,38.27 0 0 1 26.2,18.66 l -3.67,8.28 c -0.63,1.43 0.02,3.11 1.44,3.75 l 7.06,3.13 a 38.27,38.27 0 0 1 0.08,6.64 h -3.93 c -0.39,0 -0.55,0.26 -0.55,0.64 v 1.8 c 0,4.24 -2.39,5.17 -4.49,5.4 -2,0.23 -4.21,-0.84 -4.49,-2.06 -1.18,-6.63 -3.14,-8.04 -6.24,-10.49 3.85,-2.44 7.85,-6.05 7.85,-10.87 0,-5.21 -3.57,-8.49 -6,-10.1 -3.42,-2.25 -7.2,-2.7 -8.22,-2.7 H 42.54 A 38.27,38.27 0 0 1 63.95,33 l 4.79,5.02 c 1.08,1.13 2.87,1.18 4,0.09 z M 33.9,56.02 a 3.11,3.11 0 0 1 3.02,3.11 3.11,3.11 0 0 1 -6.22,0 3.11,3.11 0 0 1 3.2,-3.11 z m 74.15,0.14 a 3.11,3.11 0 0 1 3.02,3.11 3.11,3.11 0 0 1 -6.22,0 3.11,3.11 0 0 1 3.2,-3.11 z m -68.29,0.5 h 5.42 V 81.1 H 34.24 A 38.27,38.27 0 0 1 33,66.49 l 6.7,-2.98 c 1.43,-0.64 2.08,-2.31 1.44,-3.74 z m 22.62,0.26 h 12.91 c 0.67,0 4.71,0.77 4.71,3.8 0,2.51 -3.1,3.41 -5.65,3.41 H 62.37 Z m 0,17.56 h 9.89 c 0.9,0 4.83,0.26 6.08,5.28 0.39,1.54 1.26,6.56 1.85,8.17 0.59,1.8 2.98,5.4 5.53,5.4 h 16.14 a 38.27,38.27 0 0 1 -3.54,4.1 l -6.57,-1.41 c -1.53,-0.33 -3.04,0.65 -3.37,2.18 l -1.56,7.28 A 38.27,38.27 0 0 1 54.92,105.33 L 53.36,98.05 C 53.03,96.52 51.53,95.54 50,95.87 l -6.43,1.38 a 38.27,38.27 0 0 1 -3.32,-3.92 h 31.27 c 0.35,0 0.59,-0.06 0.59,-0.39 V 81.88 c 0,-0.32 -0.24,-0.39 -0.59,-0.39 H 62.37 Z M 47.95,99.81 a 3.11,3.11 0 0 1 3.02,3.11 3.11,3.11 0 0 1 -6.22,0 3.11,3.11 0 0 1 3.2,-3.11 z M 94,99.95 a 3.11,3.11 0 0 1 3.02,3.11 3.11,3.11 0 0 1 -6.22,0 3.11,3.11 0 0 1 3.2,-3.11 z"
         id="path1339" />
      <path
         style="fill-rule:evenodd;stroke:#000000;stroke-width:3;stroke-linecap:round;stroke-linejoin:round"
         inkscape:connector-curvature="0"
         d="M 115.68,70.95 A 44.63,44.63 0 0 1 71.05,115.58 44.63,44.63 0 0 1 26.42,70.95 44.63,44.63 0 0 1 71.05,26.32 44.63,44.63 0 0 1 115.68,70.95 Z m -0.84,-4.31 6.96,4.31 -6.96,4.31 5.98,5.59 -7.66,2.87 4.78,6.65 -8.09,1.32 3.4,7.46 -8.19,-0.29 1.88,7.98 -7.98,-1.88 0.29,8.19 -7.46,-3.4 -1.32,8.09 -6.65,-4.78 -2.87,7.66 -5.59,-5.98 -4.31,6.96 -4.31,-6.96 -5.59,5.98 -2.87,-7.66 -6.65,4.78 -1.32,-8.09 -7.46,3.4 0.29,-8.19 -7.98,1.88 1.88,-7.98 -8.19,0.29 3.4,-7.46 -8.09,-1.32 4.78,-6.65 -7.66,-2.87 5.98,-5.59 -6.96,-4.31 6.96,-4.31 -5.98,-5.59 7.66,-2.87 -4.78,-6.65 8.09,-1.32 -3.4,-7.46 8.19,0.29 -1.88,-7.98 7.98,1.88 -0.29,-8.19 7.46,3.4 1.32,-8.09 6.65,4.78 2.87,-7.66 5.59,5.98 4.31,-6.96 4.31,6.96 5.59,-5.98 2.87,7.66 6.65,-4.78 1.32,8.09 7.46,-3.4 -0.29,8.19 7.98,-1.88 -1.88,7.98 8.19,-0.29 -3.4,7.46 8.09,1.32 -4.78,6.65 7.66,2.87 z"
         id="path1341" />
    </g>
    <g
       transform="matrix(0.11934928,0,0,0.11934928,10.9874,0.905)"
       id="g1357">
      <path
         inkscape:connector-curvature="0"
         style="fill:url(#p)"
         d="M 881,954 H 348 V 756 a 68,68 0 0 1 68,-68 h 533 v 198 a 68,68 0 0 1 -68,68 z"
         id="path231" />
      <path
         style="fill:#002d3e"
         inkscape:connector-curvature="0"
         d="m 531.35,855.62 c 0,33.13 -26.38,43.38 -63,43.38 H 423 V 748.36 h 39.46 c 38.8,0 62.35,10.9 62.35,38.37 0,18.75 -13.52,29.43 -27.91,32.48 17.22,3.27 34.45,11.34 34.45,36.41 z m -79.57,-86.11 v 40.76 h 17.65 c 15.7,0 25.95,-7 25.95,-21.14 0,-15.26 -10.47,-19.62 -30.09,-19.62 z m 49.48,85 c 0,-18.1 -12.86,-24.2 -29.65,-24.2 h -19.83 v 47.09 h 16.78 c 19,0 32.7,-3.91 32.7,-22.87 z m 142.11,-84.79 h -55.59 v 42.08 h 48.39 v 21.36 h -48.39 v 44.26 h 59.51 V 899 H 559 V 748.36 h 87.42 z m 128.41,1.53 H 732.54 V 899 h -29 V 771.25 H 663 v -22.89 h 111.83 z m 82.38,92.87 H 804.24 L 794.87,899 H 765 L 811.87,748.36 H 847.4 L 894.06,899 h -30.52 z m -5.66,-21.8 -19.41,-71.94 -19.18,71.94 z"
         id="path233" />
    </g>
  </g>
</svg>
