<?xml version="1.0" encoding="UTF-8" standalone="no"?>
<svg
   xmlns:dc="http://purl.org/dc/elements/1.1/"
   xmlns:cc="http://creativecommons.org/ns#"
   xmlns:rdf="http://www.w3.org/1999/02/22-rdf-syntax-ns#"
   xmlns:svg="http://www.w3.org/2000/svg"
   xmlns="http://www.w3.org/2000/svg"
   xmlns:sodipodi="http://sodipodi.sourceforge.net/DTD/sodipodi-0.dtd"
   xmlns:inkscape="http://www.inkscape.org/namespaces/inkscape"
   inkscape:export-ydpi="341.32999"
   inkscape:export-xdpi="341.32999"
   inkscape:export-filename="/Users/jrediger/bitmap.png"
   inkscape:version="1.0beta1 (fe3e306, 2019-09-17)"
   sodipodi:docname="rust-logo-nightly.svg"
   id="svg71"
   version="1.1"
   fill="none"
   viewBox="0 0 142.93228 144"
   height="144"
   width="144">
  <metadata
     id="metadata75">
    <rdf:RDF>
      <cc:Work
         rdf:about="">
        <dc:format>image/svg+xml</dc:format>
        <dc:type
           rdf:resource="http://purl.org/dc/dcmitype/StillImage" />
        <dc:title></dc:title>
      </cc:Work>
    </rdf:RDF>
  </metadata>
  <sodipodi:namedview
     inkscape:current-layer="svg71"
     inkscape:window-maximized="0"
     inkscape:window-y="204"
     inkscape:window-x="2531"
     inkscape:cy="583.51652"
     inkscape:cx="-682.22808"
     inkscape:zoom="0.23784722"
     viewbox-width="144"
     fit-margin-bottom="0"
     fit-margin-right="0"
     fit-margin-left="0"
     fit-margin-top="0"
     showgrid="false"
     id="namedview73"
     inkscape:window-height="907"
     inkscape:window-width="1600"
     inkscape:pageshadow="2"
     inkscape:pageopacity="0"
     guidetolerance="10"
     gridtolerance="10"
     objecttolerance="10"
     borderopacity="1"
     inkscape:document-rotation="0"
     bordercolor="#666666"
     pagecolor="#ffffff" />
  <g
     transform="matrix(1.2924941,0,0,1.2924941,19.966139,20.499997)"
     id="g85">
    <path
       d="m 30.9664,56.636828 c 0.188,0.0967 0.376,0.1904 0.564,0.281 l -0.027,-0.017 c -0.183,-0.083 -0.356,-0.177 -0.537,-0.264 z"
       fill="url(#paint0_radial)"
       id="path10"
       inkscape:connector-curvature="0"
       style="fill:url(#paint0_radial)" />
    <path
       d="m 30.9664,56.636828 c 0.188,0.0967 0.376,0.1904 0.564,0.281 l -0.027,-0.017 c -0.183,-0.083 -0.356,-0.177 -0.537,-0.264 z"
       fill="url(#paint1_radial)"
       id="path12"
       inkscape:connector-curvature="0"
       style="fill:url(#paint1_radial)" />
    <path
       d="m 49.1784,37.926828 -0.001,10e-4 z"
       fill="#FF4AA2"
       id="path14"
       inkscape:connector-curvature="0" />
    <path
       fill-rule="evenodd"
       clip-rule="evenodd"
       d="m 13.5156,20.292228 v 8.8244 h 6.9295 v 18.6289 h -8.3969 v 9.3129 h 28.4737 c 0.2698,0 0.4497,-0.0488 0.4497,-0.2942 v -8.4304 c 0,-0.2454 -0.1799,-0.2942 -0.4497,-0.2942 h -6.9702 v -5.3438 h 7.5387 c 0.6882,0 3.6795,0.1966 4.6359,4.0201 0.1066,0.4185 0.2585,1.1727 0.4303,2.0257 l 7e-4,0.0033 0.0012,0.0055 c 0.3105,1.5419 0.6856,3.4038 0.9746,4.1911 0.4481,1.3733 2.2726,4.1169 4.2167,4.1169 h 17.8904 c 0,0 -0.0462,-14.4029 0,-15.1468 h -2.992 c -0.2995,0 -0.4199,0.1966 -0.4199,0.49 v 1.3741 c 0,3.2343 -1.8238,3.9378 -3.4219,4.1169 -1.5219,0.1714 -3.2092,-0.6372 -3.4173,-1.5685 -0.8775,-4.9359 -2.3266,-6.0774 -4.5979,-7.8666 l -0.1583,-0.1248 c 2.9318,-1.8618 5.9824,-4.6084 5.9824,-8.2848 0,-3.9698 -2.7214,-6.4703 -4.5763,-7.6965 -2.6026,-1.7155 -5.4842,-2.0592 -6.2615,-2.0592 z m 20.0377,9.021 v 5.491 l 9.1246,-8e-4 c 1.9434,0 4.3066,-0.6859 4.3066,-2.5988 0,-2.3038 -3.0812,-2.8914 -3.5895,-2.8914 z"
       fill="url(#paint2_radial)"
       id="path16"
       inkscape:connector-curvature="0"
       style="fill:url(#paint2_radial)" />
    <path
       fill-rule="evenodd"
       clip-rule="evenodd"
       d="m 13.5156,20.292228 v 8.8244 h 6.9295 v 18.6289 h -8.3969 v 9.3129 h 28.4737 c 0.2698,0 0.4497,-0.0488 0.4497,-0.2942 v -8.4304 c 0,-0.2454 -0.1799,-0.2942 -0.4497,-0.2942 h -6.9702 v -5.3438 h 7.5387 c 0.6882,0 3.6795,0.1966 4.6359,4.0201 0.1066,0.4185 0.2585,1.1727 0.4303,2.0257 l 7e-4,0.0033 0.0012,0.0055 c 0.3105,1.5419 0.6856,3.4038 0.9746,4.1911 0.4481,1.3733 2.2726,4.1169 4.2167,4.1169 h 17.8904 c 0,0 -0.0462,-14.4029 0,-15.1468 h -2.992 c -0.2995,0 -0.4199,0.1966 -0.4199,0.49 v 1.3741 c 0,3.2343 -1.8238,3.9378 -3.4219,4.1169 -1.5219,0.1714 -3.2092,-0.6372 -3.4173,-1.5685 -0.8775,-4.9359 -2.3266,-6.0774 -4.5979,-7.8666 l -0.1583,-0.1248 c 2.9318,-1.8618 5.9824,-4.6084 5.9824,-8.2848 0,-3.9698 -2.7214,-6.4703 -4.5763,-7.6965 -2.6026,-1.7155 -5.4842,-2.0592 -6.2615,-2.0592 z m 20.0377,9.021 v 5.491 l 9.1246,-8e-4 c 1.9434,0 4.3066,-0.6859 4.3066,-2.5988 0,-2.3038 -3.0812,-2.8914 -3.5895,-2.8914 z"
       fill="url(#paint3_radial)"
       id="path18"
       inkscape:connector-curvature="0"
       style="fill:url(#paint3_radial)" />
    <path
       fill-rule="evenodd"
       clip-rule="evenodd"
       d="m 75.7386,35.819328 0.0953,0.9755 3.3487,2.0729 c 0.6782,0.4192 0.6775,1.5418 -8e-4,1.9594 l -3.3487,2.0729 -0.0952,0.9755 2.8777,2.6849 c 0.5853,0.5442 0.3665,1.6416 -0.3818,1.922 l -3.6787,1.3756 -0.2881,0.9496 2.2947,3.1879 c 0.4679,0.6493 0.0397,1.6843 -0.7499,1.8108 l -3.8791,0.631 -0.4664,0.8726 1.6301,3.5766 c 0.3338,0.727 -0.2941,1.6621 -1.0882,1.6301 l -3.937,-0.1379 -0.6204,0.756 0.9031,3.8356 c 0.1829,0.7774 -0.6074,1.5669 -1.3863,1.384 l -3.8341,-0.9031 -0.7552,0.6204 0.1371,3.9378 c 0.029,0.7987 -0.9023,1.4205 -1.6293,1.0883 l -3.5773,-1.6302 -0.8711,0.4672 -0.6325,3.8776 c -0.1281,0.788 -1.163,1.2163 -1.8108,0.7514 l -3.1878,-2.2962 -0.9496,0.2888 -1.3756,3.678 c -0.279,0.7468 -1.3779,0.9671 -1.9221,0.3818 l -2.684,-2.8785 -0.9756,0.0975 -2.0728,3.3488 c -0.4192,0.6767 -1.5418,0.6752 -1.9594,0 l -2.0729,-3.3488 -0.9763,-0.0975 -2.6848,2.8785 c -0.5442,0.5853 -1.6431,0.365 -1.9221,-0.3818 l -1.3755,-3.678 -0.9496,-0.2888 -3.1871,2.2962 c -0.6478,0.4649 -1.6835,0.0381 -1.8115,-0.7514 l -0.6326,-3.8776 -0.8711,-0.4672 -3.5773,1.6302 c -0.727,0.3322 -1.6598,-0.2911 -1.6293,-1.0883 l 0.1371,-3.9378 -0.756,-0.6204 -3.8341,0.9031 c -0.7789,0.1829 -1.5699,-0.6066 -1.387,-1.384 l 0.9031,-3.8356 -0.6219,-0.756 -3.9354698,0.1379 c -0.79412,0.032 -1.4213399,-0.9031 -1.08905,-1.6301 l 1.6309001,-3.5766 -0.4671601,-0.8726 -3.87834,-0.631 c -0.78803,-0.1265 -1.21709,-1.1615 -0.7506599,-1.8108 l 2.29467,-3.1879 -0.28808,-0.9496 -3.6794201,-1.3756 c -0.74683995,-0.2804 -0.96556995,-1.3778 -0.38179,-1.922 l 2.8784301,-2.6849 -0.09525,-0.9755 -3.34868295,-2.0729 c -0.678263,-0.4176 -0.678263,-1.5402 0,-1.9594 l 3.34868295,-2.0729 0.09525,-0.9755 -2.8784301,-2.6841 c -0.58377995,-0.5457 -0.36504995,-1.6439 0.38179,-1.9228 l 3.6794201,-1.3756 0.28808,-0.9496 -2.29467,-3.1871 c -0.46488,-0.6478 -0.03811,-1.6835 0.7498899,-1.8116 l 3.87911,-0.631 0.4671601,-0.8711 -1.6309001,-3.5781 c -0.33075,-0.7285 0.29493,-1.653 1.0890501,-1.6301 l 3.9369697,0.1372 0.6204,-0.7545 -0.9031,-3.8349 c -0.1829,-0.7789 0.6081,-1.5684 1.387,-1.3871 l 3.8341,0.9039 0.756,-0.6219 -0.1371,-3.937 c -0.0305,-0.79716 0.9023,-1.42133 1.6293,-1.08906 l 3.5773,1.63092 0.8711,-0.46718 0.6326,-3.87987 c 0.128,-0.7865 1.1637,-1.21785 1.8115,-0.74992 l 3.1886,2.2947 0.9488,-0.28731 1.3756,-3.67944 c 0.2789,-0.74991 1.3779,-0.965595 1.922,-0.38334 l 2.6849,2.87999 0.9762,-0.09526 2.073,-3.349454 c 0.4176,-0.678272 1.5401,-0.678272 1.9593,0 l 2.0729,3.349454 0.9755,0.09526 2.6841,-2.87999 c 0.5442,-0.582255 1.6431,-0.36657 1.9221,0.38334 l 1.3755,3.67944 0.9481,0.28731 3.1894,-2.2947 c 0.6478,-0.46641 1.6827,-0.03658 1.8107,0.74992 l 0.6326,3.87987 0.871,0.46718 3.5773,-1.63092 c 0.7271,-0.33074 1.6599,0.2919 1.6294,1.08906 l -0.1379,3.937 0.756,0.6219 3.8341,-0.9039 c 0.7788,-0.1829 1.5692,0.6082 1.3862,1.3871 l -0.9046,3.8349 0.6219,0.7545 3.937,-0.1372 c 0.8017,-0.0305 1.4221,0.9016 1.0883,1.6301 l -1.6301,3.5781 0.4664,0.8711 3.879,0.631 c 0.7881,0.1296 1.2179,1.1638 0.75,1.8116 l -2.2947,3.1871 0.288,0.9496 3.6787,1.3756 c 0.7484,0.2789 0.9671,1.3771 0.3818,1.9228 z M 38.0462,7.713888 c -0.4442,0.4442 -0.6938,1.04666 -0.6938,1.67487 0,0.39327 0.0978,0.77657 0.28,1.11717 0.1088,0.2034 0.2477,0.3916 0.4138,0.5577 0.4442,0.4442 1.0466,0.6938 1.6748,0.6938 0.6282,0 1.2307,-0.2496 1.6749,-0.6938 0.1705,-0.1705 0.3124,-0.3644 0.4224,-0.5741 0.1766,-0.3365 0.2713,-0.7137 0.2713,-1.10077 0,-0.62821 -0.2495,-1.23067 -0.6937,-1.67487 -0.4442,-0.44421 -1.0467,-0.69376 -1.6749,-0.69376 -0.6281,0 -1.2306,0.24955 -1.6748,0.69376 z m 12.833,4.87084 c 1.4506,0.5935 2.8427,1.3006 4.1654,2.11 0.5862,0.3579 1.1605,0.737 1.7217,1.1367 3.409,2.4278 6.2541,5.5592 8.3442,9.1837 l 0.0065,0.0089 0.0085,0.0071 0.0082,0.0044 0.006,0.0027 c 0.0212,0.0093 0.0424,0.0185 0.0424,0.1017 l -2.7939,6.3102 c -0.4824,1.0921 0.0099,2.3694 1.0989,2.8534 l 5.3786,2.389 c 0.1426,1.4339 0.179,2.8761 0.1084,4.3146 -0.2838,5.9364 -2.3424,11.4078 -5.6568,15.8951 h 0.025 c -0.6424,0.8599 -1.3317,1.6835 -2.0646,2.467 -0.0578,0.0626 -0.1158,0.1249 -0.1742,0.187 -0.1513,0.159 -0.3045,0.3163 -0.4595,0.4718 l -5.0092,-1.0768 c -1.1668,-0.25 -2.3145,0.4923 -2.5645,1.6614 l -1.1889,5.5481 c -3.008,1.3626 -6.2195,2.2016 -9.4964,2.4877 l -0.0026,3e-4 c -0.8881,0.0775 -1.781,0.1144 -2.676,0.1101 -0.5547,-0.0026 -1.1085,-0.0211 -1.6607,-0.0553 -0.0976,-0.0059 -0.195,-0.0123 -0.2923,-0.0192 l 0.1741,0.0114 0.0653,0.0041 c -3.6027,-0.2298 -7.1367,-1.1269 -10.4202,-2.6508 l -1.1987,-5.553 c -0.0312,-0.146 -0.0765,-0.2853 -0.1341,-0.4169 -0.403,-0.9211 -1.4093,-1.4631 -2.4296,-1.2438 l -4.9038,1.0457 c -0.6015,-0.6198 -1.1751,-1.2659 -1.719,-1.9363 H 17.174 c 0.0262,0.0323 0.0518,0.065 0.077,0.0981 -4.1111,-5.027 -6.5774,-11.4515 -6.5774,-18.4521 0,-1.0603 0.0565,-2.1074 0.1669,-3.1385 l 5.091,-2.2623 c 1.0898,-0.4839 1.5821,-1.7612 1.0981,-2.8533 l -2.6661,-5.9564 c 3.61,-6.4583 9.6043,-11.4027 16.7917,-13.6416 v 0.0094 c 1.0728,-0.3352 2.1682,-0.6094 3.2814,-0.8198 l 3.6474,3.8265 c 0.8247,0.8635 2.1903,0.8955 3.053,0.0701 l 4.0811,-3.9035 c 1.9855,0.3719 3.921,0.948 5.7768,1.7156 v -0.0046 z m -26.347,51.8376 c 0,0 0.0784,0.0466 0.0026,-3e-4 0.0062,-0.0695 0.0093,-0.1396 0.0093,-0.21 0,-0.6282 -0.2495,-1.2307 -0.6937,-1.6749 -0.4442,-0.4441 -1.0467,-0.6937 -1.6749,-0.6937 -0.3306,0 -0.654,0.0691 -0.951,0.1993 l -0.0034,-3e-4 c -0.2674,0.1172 -0.5126,0.2846 -0.723,0.495 -0.4442,0.4442 -0.6938,1.0467 -0.6938,1.6749 0,0.6282 0.2496,1.2307 0.6938,1.6749 0.4442,0.4442 1.0466,0.6937 1.6748,0.6937 0.6282,0 1.2307,-0.2495 1.6749,-0.6937 0.3944,-0.3945 0.6354,-0.9137 0.6844,-1.4649 -0.0771,-0.0466 0.0767,0.0474 0,0 z m -5.6388,-4.5385 -0.0024,5e-4 c -0.5699,-0.5881 -1.1152,-1.2002 -1.6343,-1.8345 l -0.0053,-0.0101 c 0.5214,0.6378 1.0693,1.253 1.642,1.8441 z m 36.0191,4.6845 c 0.0561,0.538 0.2951,1.0434 0.681,1.4294 0.4442,0.4442 1.0467,0.6937 1.6749,0.6937 0.6282,0 1.2306,-0.2495 1.6748,-0.6937 0.4442,-0.4442 0.6938,-1.0467 0.6938,-1.6749 0,-0.6282 -0.2496,-1.2307 -0.6938,-1.6749 -0.1924,-0.1924 -0.4145,-0.3483 -0.6556,-0.4632 -0.315,-0.1499 -0.661,-0.2308 -1.0166,-0.2308 -0.6282,0 -1.2306,0.2495 -1.6749,0.6937 -0.4442,0.4442 -0.6937,1.0467 -0.6937,1.6749 0,0.082 0.0042,0.1635 0.0126,0.2443 z m 11.9938,-35.7364 0.0444,-0.0219 c 0.3172,-0.1524 0.6674,-0.2337 1.026,-0.2337 0.6281,-10e-5 1.2306,0.2495 1.6748,0.6937 0.4442,0.4442 0.6938,1.0467 0.6938,1.6749 0,0.6282 -0.2496,1.2306 -0.6938,1.6748 -0.3218,0.3219 -0.7268,0.5416 -1.1645,0.6382 l -0.0609,0.0109 -0.101,0.0189 c -0.1147,0.0171 -0.2311,0.0258 -0.3484,0.0258 -0.5497,0 -1.0797,-0.1911 -1.5012,-0.5364 -0.0602,-0.0493 -0.1182,-0.1018 -0.1737,-0.1574 -0.4164,-0.4164 -0.6618,-0.9719 -0.6908,-1.5574 l -0.0016,-0.0374 c -9e-4,-0.0266 -0.0013,-0.0533 -0.0013,-0.08 0,-0.5497 0.191,-1.0797 0.5364,-1.5012 0.0493,-0.0602 0.1018,-0.1182 0.1573,-0.1737 0.1788,-0.1787 0.3831,-0.326 0.6045,-0.4381 z m -55.4416,-0.3662 c 0.4421,0 0.8714,0.1236 1.2418,0.3517 l -0.0042,0.0106 c 0.1495,0.0938 0.2892,0.2047 0.416,0.3315 0.4442,0.4442 0.6938,1.0467 0.6938,1.6749 0,0.6282 -0.2496,1.2306 -0.6938,1.6748 -0.4442,0.4442 -1.0466,0.6938 -1.6748,0.6938 h -0.0103 l -0.0578,-0.001 c -0.5958,-0.0224 -1.1624,-0.2696 -1.5855998,-0.6928 -0.4442,-0.4442 -0.69374,-1.0466 -0.69374,-1.6748 0,-0.6282 0.24954,-1.2307 0.69374,-1.6749 0.4441998,-0.4442 1.0466998,-0.6938 1.6748998,-0.6938 z"
       fill="url(#paint4_radial)"
       id="path20"
       inkscape:connector-curvature="0"
       style="fill:url(#paint4_radial)" />
    <path
       fill-rule="evenodd"
       clip-rule="evenodd"
       d="m 75.7386,35.819328 0.0953,0.9755 3.3487,2.0729 c 0.6782,0.4192 0.6775,1.5418 -8e-4,1.9594 l -3.3487,2.0729 -0.0952,0.9755 2.8777,2.6849 c 0.5853,0.5442 0.3665,1.6416 -0.3818,1.922 l -3.6787,1.3756 -0.2881,0.9496 2.2947,3.1879 c 0.4679,0.6493 0.0397,1.6843 -0.7499,1.8108 l -3.8791,0.631 -0.4664,0.8726 1.6301,3.5766 c 0.3338,0.727 -0.2941,1.6621 -1.0882,1.6301 l -3.937,-0.1379 -0.6204,0.756 0.9031,3.8356 c 0.1829,0.7774 -0.6074,1.5669 -1.3863,1.384 l -3.8341,-0.9031 -0.7552,0.6204 0.1371,3.9378 c 0.029,0.7987 -0.9023,1.4205 -1.6293,1.0883 l -3.5773,-1.6302 -0.8711,0.4672 -0.6325,3.8776 c -0.1281,0.788 -1.163,1.2163 -1.8108,0.7514 l -3.1878,-2.2962 -0.9496,0.2888 -1.3756,3.678 c -0.279,0.7468 -1.3779,0.9671 -1.9221,0.3818 l -2.684,-2.8785 -0.9756,0.0975 -2.0728,3.3488 c -0.4192,0.6767 -1.5418,0.6752 -1.9594,0 l -2.0729,-3.3488 -0.9763,-0.0975 -2.6848,2.8785 c -0.5442,0.5853 -1.6431,0.365 -1.9221,-0.3818 l -1.3755,-3.678 -0.9496,-0.2888 -3.1871,2.2962 c -0.6478,0.4649 -1.6835,0.0381 -1.8115,-0.7514 l -0.6326,-3.8776 -0.8711,-0.4672 -3.5773,1.6302 c -0.727,0.3322 -1.6598,-0.2911 -1.6293,-1.0883 l 0.1371,-3.9378 -0.756,-0.6204 -3.8341,0.9031 c -0.7789,0.1829 -1.5699,-0.6066 -1.387,-1.384 l 0.9031,-3.8356 -0.6219,-0.756 -3.9354698,0.1379 c -0.79412,0.032 -1.4213399,-0.9031 -1.08905,-1.6301 l 1.6309001,-3.5766 -0.4671601,-0.8726 -3.87834,-0.631 c -0.78803,-0.1265 -1.21709,-1.1615 -0.7506599,-1.8108 l 2.29467,-3.1879 -0.28808,-0.9496 -3.6794201,-1.3756 c -0.74683995,-0.2804 -0.96556995,-1.3778 -0.38179,-1.922 l 2.8784301,-2.6849 -0.09525,-0.9755 -3.34868295,-2.0729 c -0.678263,-0.4176 -0.678263,-1.5402 0,-1.9594 l 3.34868295,-2.0729 0.09525,-0.9755 -2.8784301,-2.6841 c -0.58377995,-0.5457 -0.36504995,-1.6439 0.38179,-1.9228 l 3.6794201,-1.3756 0.28808,-0.9496 -2.29467,-3.1871 c -0.46488,-0.6478 -0.03811,-1.6835 0.7498899,-1.8116 l 3.87911,-0.631 0.4671601,-0.8711 -1.6309001,-3.5781 c -0.33075,-0.7285 0.29493,-1.653 1.0890501,-1.6301 l 3.9369697,0.1372 0.6204,-0.7545 -0.9031,-3.8349 c -0.1829,-0.7789 0.6081,-1.5684 1.387,-1.3871 l 3.8341,0.9039 0.756,-0.6219 -0.1371,-3.937 c -0.0305,-0.79716 0.9023,-1.42133 1.6293,-1.08906 l 3.5773,1.63092 0.8711,-0.46718 0.6326,-3.87987 c 0.128,-0.7865 1.1637,-1.21785 1.8115,-0.74992 l 3.1886,2.2947 0.9488,-0.28731 1.3756,-3.67944 c 0.2789,-0.74991 1.3779,-0.965595 1.922,-0.38334 l 2.6849,2.87999 0.9762,-0.09526 2.073,-3.349454 c 0.4176,-0.678272 1.5401,-0.678272 1.9593,0 l 2.0729,3.349454 0.9755,0.09526 2.6841,-2.87999 c 0.5442,-0.582255 1.6431,-0.36657 1.9221,0.38334 l 1.3755,3.67944 0.9481,0.28731 3.1894,-2.2947 c 0.6478,-0.46641 1.6827,-0.03658 1.8107,0.74992 l 0.6326,3.87987 0.871,0.46718 3.5773,-1.63092 c 0.7271,-0.33074 1.6599,0.2919 1.6294,1.08906 l -0.1379,3.937 0.756,0.6219 3.8341,-0.9039 c 0.7788,-0.1829 1.5692,0.6082 1.3862,1.3871 l -0.9046,3.8349 0.6219,0.7545 3.937,-0.1372 c 0.8017,-0.0305 1.4221,0.9016 1.0883,1.6301 l -1.6301,3.5781 0.4664,0.8711 3.879,0.631 c 0.7881,0.1296 1.2179,1.1638 0.75,1.8116 l -2.2947,3.1871 0.288,0.9496 3.6787,1.3756 c 0.7484,0.2789 0.9671,1.3771 0.3818,1.9228 z M 38.0462,7.713888 c -0.4442,0.4442 -0.6938,1.04666 -0.6938,1.67487 0,0.39327 0.0978,0.77657 0.28,1.11717 0.1088,0.2034 0.2477,0.3916 0.4138,0.5577 0.4442,0.4442 1.0466,0.6938 1.6748,0.6938 0.6282,0 1.2307,-0.2496 1.6749,-0.6938 0.1705,-0.1705 0.3124,-0.3644 0.4224,-0.5741 0.1766,-0.3365 0.2713,-0.7137 0.2713,-1.10077 0,-0.62821 -0.2495,-1.23067 -0.6937,-1.67487 -0.4442,-0.44421 -1.0467,-0.69376 -1.6749,-0.69376 -0.6281,0 -1.2306,0.24955 -1.6748,0.69376 z m 12.833,4.87084 c 1.4506,0.5935 2.8427,1.3006 4.1654,2.11 0.5862,0.3579 1.1605,0.737 1.7217,1.1367 3.409,2.4278 6.2541,5.5592 8.3442,9.1837 l 0.0065,0.0089 0.0085,0.0071 0.0082,0.0044 0.006,0.0027 c 0.0212,0.0093 0.0424,0.0185 0.0424,0.1017 l -2.7939,6.3102 c -0.4824,1.0921 0.0099,2.3694 1.0989,2.8534 l 5.3786,2.389 c 0.1426,1.4339 0.179,2.8761 0.1084,4.3146 -0.2838,5.9364 -2.3424,11.4078 -5.6568,15.8951 h 0.025 c -0.6424,0.8599 -1.3317,1.6835 -2.0646,2.467 -0.0578,0.0626 -0.1158,0.1249 -0.1742,0.187 -0.1513,0.159 -0.3045,0.3163 -0.4595,0.4718 l -5.0092,-1.0768 c -1.1668,-0.25 -2.3145,0.4923 -2.5645,1.6614 l -1.1889,5.5481 c -3.008,1.3626 -6.2195,2.2016 -9.4964,2.4877 l -0.0026,3e-4 c -0.8881,0.0775 -1.781,0.1144 -2.676,0.1101 -0.5547,-0.0026 -1.1085,-0.0211 -1.6607,-0.0553 -0.0976,-0.0059 -0.195,-0.0123 -0.2923,-0.0192 l 0.1741,0.0114 0.0653,0.0041 c -3.6027,-0.2298 -7.1367,-1.1269 -10.4202,-2.6508 l -1.1987,-5.553 c -0.0312,-0.146 -0.0765,-0.2853 -0.1341,-0.4169 -0.403,-0.9211 -1.4093,-1.4631 -2.4296,-1.2438 l -4.9038,1.0457 c -0.6015,-0.6198 -1.1751,-1.2659 -1.719,-1.9363 H 17.174 c 0.0262,0.0323 0.0518,0.065 0.077,0.0981 -4.1111,-5.027 -6.5774,-11.4515 -6.5774,-18.4521 0,-1.0603 0.0565,-2.1074 0.1669,-3.1385 l 5.091,-2.2623 c 1.0898,-0.4839 1.5821,-1.7612 1.0981,-2.8533 l -2.6661,-5.9564 c 3.61,-6.4583 9.6043,-11.4027 16.7917,-13.6416 v 0.0094 c 1.0728,-0.3352 2.1682,-0.6094 3.2814,-0.8198 l 3.6474,3.8265 c 0.8247,0.8635 2.1903,0.8955 3.053,0.0701 l 4.0811,-3.9035 c 1.9855,0.3719 3.921,0.948 5.7768,1.7156 v -0.0046 z m -26.347,51.8376 c 0,0 0.0784,0.0466 0.0026,-3e-4 0.0062,-0.0695 0.0093,-0.1396 0.0093,-0.21 0,-0.6282 -0.2495,-1.2307 -0.6937,-1.6749 -0.4442,-0.4441 -1.0467,-0.6937 -1.6749,-0.6937 -0.3306,0 -0.654,0.0691 -0.951,0.1993 l -0.0034,-3e-4 c -0.2674,0.1172 -0.5126,0.2846 -0.723,0.495 -0.4442,0.4442 -0.6938,1.0467 -0.6938,1.6749 0,0.6282 0.2496,1.2307 0.6938,1.6749 0.4442,0.4442 1.0466,0.6937 1.6748,0.6937 0.6282,0 1.2307,-0.2495 1.6749,-0.6937 0.3944,-0.3945 0.6354,-0.9137 0.6844,-1.4649 -0.0771,-0.0466 0.0767,0.0474 0,0 z m -5.6388,-4.5385 -0.0024,5e-4 c -0.5699,-0.5881 -1.1152,-1.2002 -1.6343,-1.8345 l -0.0053,-0.0101 c 0.5214,0.6378 1.0693,1.253 1.642,1.8441 z m 36.0191,4.6845 c 0.0561,0.538 0.2951,1.0434 0.681,1.4294 0.4442,0.4442 1.0467,0.6937 1.6749,0.6937 0.6282,0 1.2306,-0.2495 1.6748,-0.6937 0.4442,-0.4442 0.6938,-1.0467 0.6938,-1.6749 0,-0.6282 -0.2496,-1.2307 -0.6938,-1.6749 -0.1924,-0.1924 -0.4145,-0.3483 -0.6556,-0.4632 -0.315,-0.1499 -0.661,-0.2308 -1.0166,-0.2308 -0.6282,0 -1.2306,0.2495 -1.6749,0.6937 -0.4442,0.4442 -0.6937,1.0467 -0.6937,1.6749 0,0.082 0.0042,0.1635 0.0126,0.2443 z m 11.9938,-35.7364 0.0444,-0.0219 c 0.3172,-0.1524 0.6674,-0.2337 1.026,-0.2337 0.6281,-10e-5 1.2306,0.2495 1.6748,0.6937 0.4442,0.4442 0.6938,1.0467 0.6938,1.6749 0,0.6282 -0.2496,1.2306 -0.6938,1.6748 -0.3218,0.3219 -0.7268,0.5416 -1.1645,0.6382 l -0.0609,0.0109 -0.101,0.0189 c -0.1147,0.0171 -0.2311,0.0258 -0.3484,0.0258 -0.5497,0 -1.0797,-0.1911 -1.5012,-0.5364 -0.0602,-0.0493 -0.1182,-0.1018 -0.1737,-0.1574 -0.4164,-0.4164 -0.6618,-0.9719 -0.6908,-1.5574 l -0.0016,-0.0374 c -9e-4,-0.0266 -0.0013,-0.0533 -0.0013,-0.08 0,-0.5497 0.191,-1.0797 0.5364,-1.5012 0.0493,-0.0602 0.1018,-0.1182 0.1573,-0.1737 0.1788,-0.1787 0.3831,-0.326 0.6045,-0.4381 z m -55.4416,-0.3662 c 0.4421,0 0.8714,0.1236 1.2418,0.3517 l -0.0042,0.0106 c 0.1495,0.0938 0.2892,0.2047 0.416,0.3315 0.4442,0.4442 0.6938,1.0467 0.6938,1.6749 0,0.6282 -0.2496,1.2306 -0.6938,1.6748 -0.4442,0.4442 -1.0466,0.6938 -1.6748,0.6938 h -0.0103 l -0.0578,-0.001 c -0.5958,-0.0224 -1.1624,-0.2696 -1.5855998,-0.6928 -0.4442,-0.4442 -0.69374,-1.0466 -0.69374,-1.6748 0,-0.6282 0.24954,-1.2307 0.69374,-1.6749 0.4441998,-0.4442 1.0466998,-0.6938 1.6748998,-0.6938 z"
       fill="url(#paint5_linear)"
       id="path22"
       inkscape:connector-curvature="0"
       style="fill:url(#paint5_linear)" />
    <path
       fill-rule="evenodd"
       clip-rule="evenodd"
       d="m 75.7386,35.819328 0.0953,0.9755 3.3487,2.0729 c 0.6782,0.4192 0.6775,1.5418 -8e-4,1.9594 l -3.3487,2.0729 -0.0952,0.9755 2.8777,2.6849 c 0.5853,0.5442 0.3665,1.6416 -0.3818,1.922 l -3.6787,1.3756 -0.2881,0.9496 2.2947,3.1879 c 0.4679,0.6493 0.0397,1.6843 -0.7499,1.8108 l -3.8791,0.631 -0.4664,0.8726 1.6301,3.5766 c 0.3338,0.727 -0.2941,1.6621 -1.0882,1.6301 l -3.937,-0.1379 -0.6204,0.756 0.9031,3.8356 c 0.1829,0.7774 -0.6074,1.5669 -1.3863,1.384 l -3.8341,-0.9031 -0.7552,0.6204 0.1371,3.9378 c 0.029,0.7987 -0.9023,1.4205 -1.6293,1.0883 l -3.5773,-1.6302 -0.8711,0.4672 -0.6325,3.8776 c -0.1281,0.788 -1.163,1.2163 -1.8108,0.7514 l -3.1878,-2.2962 -0.9496,0.2888 -1.3756,3.678 c -0.279,0.7468 -1.3779,0.9671 -1.9221,0.3818 l -2.684,-2.8785 -0.9756,0.0975 -2.0728,3.3488 c -0.4192,0.6767 -1.5418,0.6752 -1.9594,0 l -2.0729,-3.3488 -0.9763,-0.0975 -2.6848,2.8785 c -0.5442,0.5853 -1.6431,0.365 -1.9221,-0.3818 l -1.3755,-3.678 -0.9496,-0.2888 -3.1871,2.2962 c -0.6478,0.4649 -1.6835,0.0381 -1.8115,-0.7514 l -0.6326,-3.8776 -0.8711,-0.4672 -3.5773,1.6302 c -0.727,0.3322 -1.6598,-0.2911 -1.6293,-1.0883 l 0.1371,-3.9378 -0.756,-0.6204 -3.8341,0.9031 c -0.7789,0.1829 -1.5699,-0.6066 -1.387,-1.384 l 0.9031,-3.8356 -0.6219,-0.756 -3.9354698,0.1379 c -0.79412,0.032 -1.4213399,-0.9031 -1.08905,-1.6301 l 1.6309001,-3.5766 -0.4671601,-0.8726 -3.87834,-0.631 c -0.78803,-0.1265 -1.21709,-1.1615 -0.7506599,-1.8108 l 2.29467,-3.1879 -0.28808,-0.9496 -3.6794201,-1.3756 c -0.74683995,-0.2804 -0.96556995,-1.3778 -0.38179,-1.922 l 2.8784301,-2.6849 -0.09525,-0.9755 -3.34868295,-2.0729 c -0.678263,-0.4176 -0.678263,-1.5402 0,-1.9594 l 3.34868295,-2.0729 0.09525,-0.9755 -2.8784301,-2.6841 c -0.58377995,-0.5457 -0.36504995,-1.6439 0.38179,-1.9228 l 3.6794201,-1.3756 0.28808,-0.9496 -2.29467,-3.1871 c -0.46488,-0.6478 -0.03811,-1.6835 0.7498899,-1.8116 l 3.87911,-0.631 0.4671601,-0.8711 -1.6309001,-3.5781 c -0.33075,-0.7285 0.29493,-1.653 1.0890501,-1.6301 l 3.9369697,0.1372 0.6204,-0.7545 -0.9031,-3.8349 c -0.1829,-0.7789 0.6081,-1.5684 1.387,-1.3871 l 3.8341,0.9039 0.756,-0.6219 -0.1371,-3.937 c -0.0305,-0.79716 0.9023,-1.42133 1.6293,-1.08906 l 3.5773,1.63092 0.8711,-0.46718 0.6326,-3.87987 c 0.128,-0.7865 1.1637,-1.21785 1.8115,-0.74992 l 3.1886,2.2947 0.9488,-0.28731 1.3756,-3.67944 c 0.2789,-0.74991 1.3779,-0.965595 1.922,-0.38334 l 2.6849,2.87999 0.9762,-0.09526 2.073,-3.349454 c 0.4176,-0.678272 1.5401,-0.678272 1.9593,0 l 2.0729,3.349454 0.9755,0.09526 2.6841,-2.87999 c 0.5442,-0.582255 1.6431,-0.36657 1.9221,0.38334 l 1.3755,3.67944 0.9481,0.28731 3.1894,-2.2947 c 0.6478,-0.46641 1.6827,-0.03658 1.8107,0.74992 l 0.6326,3.87987 0.871,0.46718 3.5773,-1.63092 c 0.7271,-0.33074 1.6599,0.2919 1.6294,1.08906 l -0.1379,3.937 0.756,0.6219 3.8341,-0.9039 c 0.7788,-0.1829 1.5692,0.6082 1.3862,1.3871 l -0.9046,3.8349 0.6219,0.7545 3.937,-0.1372 c 0.8017,-0.0305 1.4221,0.9016 1.0883,1.6301 l -1.6301,3.5781 0.4664,0.8711 3.879,0.631 c 0.7881,0.1296 1.2179,1.1638 0.75,1.8116 l -2.2947,3.1871 0.288,0.9496 3.6787,1.3756 c 0.7484,0.2789 0.9671,1.3771 0.3818,1.9228 z M 38.0462,7.713888 c -0.4442,0.4442 -0.6938,1.04666 -0.6938,1.67487 0,0.39327 0.0978,0.77657 0.28,1.11717 0.1088,0.2034 0.2477,0.3916 0.4138,0.5577 0.4442,0.4442 1.0466,0.6938 1.6748,0.6938 0.6282,0 1.2307,-0.2496 1.6749,-0.6938 0.1705,-0.1705 0.3124,-0.3644 0.4224,-0.5741 0.1766,-0.3365 0.2713,-0.7137 0.2713,-1.10077 0,-0.62821 -0.2495,-1.23067 -0.6937,-1.67487 -0.4442,-0.44421 -1.0467,-0.69376 -1.6749,-0.69376 -0.6281,0 -1.2306,0.24955 -1.6748,0.69376 z m 12.833,4.87084 c 1.4506,0.5935 2.8427,1.3006 4.1654,2.11 0.5862,0.3579 1.1605,0.737 1.7217,1.1367 3.409,2.4278 6.2541,5.5592 8.3442,9.1837 l 0.0065,0.0089 0.0085,0.0071 0.0082,0.0044 0.006,0.0027 c 0.0212,0.0093 0.0424,0.0185 0.0424,0.1017 l -2.7939,6.3102 c -0.4824,1.0921 0.0099,2.3694 1.0989,2.8534 l 5.3786,2.389 c 0.1426,1.4339 0.179,2.8761 0.1084,4.3146 -0.2838,5.9364 -2.3424,11.4078 -5.6568,15.8951 h 0.025 c -0.6424,0.8599 -1.3317,1.6835 -2.0646,2.467 -0.0578,0.0626 -0.1158,0.1249 -0.1742,0.187 -0.1513,0.159 -0.3045,0.3163 -0.4595,0.4718 l -5.0092,-1.0768 c -1.1668,-0.25 -2.3145,0.4923 -2.5645,1.6614 l -1.1889,5.5481 c -3.008,1.3626 -6.2195,2.2016 -9.4964,2.4877 l -0.0026,3e-4 c -0.8881,0.0775 -1.781,0.1144 -2.676,0.1101 -0.5547,-0.0026 -1.1085,-0.0211 -1.6607,-0.0553 -0.0976,-0.0059 -0.195,-0.0123 -0.2923,-0.0192 l 0.1741,0.0114 0.0653,0.0041 c -3.6027,-0.2298 -7.1367,-1.1269 -10.4202,-2.6508 l -1.1987,-5.553 c -0.0312,-0.146 -0.0765,-0.2853 -0.1341,-0.4169 -0.403,-0.9211 -1.4093,-1.4631 -2.4296,-1.2438 l -4.9038,1.0457 c -0.6015,-0.6198 -1.1751,-1.2659 -1.719,-1.9363 H 17.174 c 0.0262,0.0323 0.0518,0.065 0.077,0.0981 -4.1111,-5.027 -6.5774,-11.4515 -6.5774,-18.4521 0,-1.0603 0.0565,-2.1074 0.1669,-3.1385 l 5.091,-2.2623 c 1.0898,-0.4839 1.5821,-1.7612 1.0981,-2.8533 l -2.6661,-5.9564 c 3.61,-6.4583 9.6043,-11.4027 16.7917,-13.6416 v 0.0094 c 1.0728,-0.3352 2.1682,-0.6094 3.2814,-0.8198 l 3.6474,3.8265 c 0.8247,0.8635 2.1903,0.8955 3.053,0.0701 l 4.0811,-3.9035 c 1.9855,0.3719 3.921,0.948 5.7768,1.7156 v -0.0046 z m -26.347,51.8376 c 0,0 0.0784,0.0466 0.0026,-3e-4 0.0062,-0.0695 0.0093,-0.1396 0.0093,-0.21 0,-0.6282 -0.2495,-1.2307 -0.6937,-1.6749 -0.4442,-0.4441 -1.0467,-0.6937 -1.6749,-0.6937 -0.3306,0 -0.654,0.0691 -0.951,0.1993 l -0.0034,-3e-4 c -0.2674,0.1172 -0.5126,0.2846 -0.723,0.495 -0.4442,0.4442 -0.6938,1.0467 -0.6938,1.6749 0,0.6282 0.2496,1.2307 0.6938,1.6749 0.4442,0.4442 1.0466,0.6937 1.6748,0.6937 0.6282,0 1.2307,-0.2495 1.6749,-0.6937 0.3944,-0.3945 0.6354,-0.9137 0.6844,-1.4649 -0.0771,-0.0466 0.0767,0.0474 0,0 z m -5.6388,-4.5385 -0.0024,5e-4 c -0.5699,-0.5881 -1.1152,-1.2002 -1.6343,-1.8345 l -0.0053,-0.0101 c 0.5214,0.6378 1.0693,1.253 1.642,1.8441 z m 36.0191,4.6845 c 0.0561,0.538 0.2951,1.0434 0.681,1.4294 0.4442,0.4442 1.0467,0.6937 1.6749,0.6937 0.6282,0 1.2306,-0.2495 1.6748,-0.6937 0.4442,-0.4442 0.6938,-1.0467 0.6938,-1.6749 0,-0.6282 -0.2496,-1.2307 -0.6938,-1.6749 -0.1924,-0.1924 -0.4145,-0.3483 -0.6556,-0.4632 -0.315,-0.1499 -0.661,-0.2308 -1.0166,-0.2308 -0.6282,0 -1.2306,0.2495 -1.6749,0.6937 -0.4442,0.4442 -0.6937,1.0467 -0.6937,1.6749 0,0.082 0.0042,0.1635 0.0126,0.2443 z m 11.9938,-35.7364 0.0444,-0.0219 c 0.3172,-0.1524 0.6674,-0.2337 1.026,-0.2337 0.6281,-10e-5 1.2306,0.2495 1.6748,0.6937 0.4442,0.4442 0.6938,1.0467 0.6938,1.6749 0,0.6282 -0.2496,1.2306 -0.6938,1.6748 -0.3218,0.3219 -0.7268,0.5416 -1.1645,0.6382 l -0.0609,0.0109 -0.101,0.0189 c -0.1147,0.0171 -0.2311,0.0258 -0.3484,0.0258 -0.5497,0 -1.0797,-0.1911 -1.5012,-0.5364 -0.0602,-0.0493 -0.1182,-0.1018 -0.1737,-0.1574 -0.4164,-0.4164 -0.6618,-0.9719 -0.6908,-1.5574 l -0.0016,-0.0374 c -9e-4,-0.0266 -0.0013,-0.0533 -0.0013,-0.08 0,-0.5497 0.191,-1.0797 0.5364,-1.5012 0.0493,-0.0602 0.1018,-0.1182 0.1573,-0.1737 0.1788,-0.1787 0.3831,-0.326 0.6045,-0.4381 z m -55.4416,-0.3662 c 0.4421,0 0.8714,0.1236 1.2418,0.3517 l -0.0042,0.0106 c 0.1495,0.0938 0.2892,0.2047 0.416,0.3315 0.4442,0.4442 0.6938,1.0467 0.6938,1.6749 0,0.6282 -0.2496,1.2306 -0.6938,1.6748 -0.4442,0.4442 -1.0466,0.6938 -1.6748,0.6938 h -0.0103 l -0.0578,-0.001 c -0.5958,-0.0224 -1.1624,-0.2696 -1.5855998,-0.6928 -0.4442,-0.4442 -0.69374,-1.0466 -0.69374,-1.6748 0,-0.6282 0.24954,-1.2307 0.69374,-1.6749 0.4441998,-0.4442 1.0466998,-0.6938 1.6748998,-0.6938 z"
       fill="url(#paint6_linear)"
       id="path24"
       inkscape:connector-curvature="0"
       style="fill:url(#paint6_linear)" />
  </g>
  <defs
     id="defs69">
    <radialGradient
       gradientTransform="matrix(0.625999,0,0,0.625999,31.0754,56.945828)"
       gradientUnits="userSpaceOnUse"
       r="1"
       cy="0"
       cx="0"
       id="paint0_radial">
      <stop
         id="stop26"
         stop-color="#3A8EE6"
         offset="0.353" />
      <stop
         id="stop28"
         stop-color="#5C79F0"
         offset="0.472" />
      <stop
         id="stop30"
         stop-color="#9059FF"
         offset="0.669" />
      <stop
         id="stop32"
         stop-color="#C139E6"
         offset="1" />
    </radialGradient>
    <radialGradient
       gradientTransform="matrix(0.21772786,-0.05264053,0.06162933,0.25490667,34.5539,59.541328)"
       gradientUnits="userSpaceOnUse"
       r="1"
       cy="0"
       cx="0"
       id="paint1_radial">
      <stop
         id="stop35"
         stop-opacity="0"
         stop-color="#9059FF"
         offset="0.206" />
      <stop
         id="stop37"
         stop-opacity="0.064"
         stop-color="#8C4FF3"
         offset="0.278" />
      <stop
         id="stop39"
         stop-opacity="0.45"
         stop-color="#7716A8"
         offset="0.747" />
      <stop
         id="stop41"
         stop-opacity="0.6"
         stop-color="#6E008B"
         offset="0.975" />
    </radialGradient>
    <radialGradient
       gradientTransform="matrix(0,18.3831,-28.596,0,40.6442,38.675328)"
       gradientUnits="userSpaceOnUse"
       r="1"
       cy="0"
       cx="0"
       id="paint2_radial">
      <stop
         id="stop44"
         stop-color="#7044E5" />
    </radialGradient>
    <radialGradient
       gradientTransform="matrix(0,-42.1524,66.932,0,40.6442,29.011928)"
       gradientUnits="userSpaceOnUse"
       r="1"
       cy="0"
       cx="0"
       id="paint3_radial">
      <stop
         id="stop47"
         stop-opacity="0"
         offset="0.192708" />
      <stop
         id="stop49"
         stop-opacity="0.6"
         offset="1" />
    </radialGradient>
    <radialGradient
       gradientTransform="matrix(0,39.8454,-39.8454,0,39.8454,39.845428)"
       gradientUnits="userSpaceOnUse"
       r="1"
       cy="0"
       cx="0"
       id="paint4_radial">
      <stop
         id="stop52"
         stop-color="#9059FF" />
      <stop
         id="stop54"
         stop-color="#7077FF"
         offset="0.729167" />
      <stop
         id="stop56"
         stop-color="#00DDFF"
         offset="1" />
    </radialGradient>
    <linearGradient
       gradientTransform="translate(2.5e-7,-0.406372)"
       gradientUnits="userSpaceOnUse"
       y2="57.155899"
       x2="30.1859"
       y1="10.0659"
       x1="66.409103"
       id="paint5_linear">
      <stop
         id="stop59"
         stop-color="#54FFBD" />
      <stop
         id="stop61"
         stop-opacity="0"
         stop-color="#54FFBD"
         offset="0.59375" />
    </linearGradient>
    <linearGradient
       gradientTransform="translate(2.5e-7,-0.406372)"
       gradientUnits="userSpaceOnUse"
       y2="9.5613499"
       x2="36.8577"
       y1="74.357498"
       x1="17.349199"
       id="paint6_linear">
      <stop
         id="stop64"
         stop-color="#B833E1" />
      <stop
         id="stop66"
         stop-opacity="0"
         stop-color="#B833E1"
         offset="0.59375" />
    </linearGradient>
  </defs>
</svg>
